<?xml version="1.0"?>
<svg xmlns="http://www.w3.org/2000/svg" xmlns:xlink="http://www.w3.org/1999/xlink" version="1.1" id="Capa_1" x="0px" y="0px" viewBox="0 0 512 512" style="enable-background:new 0 0 512 512;" xml:space="preserve" width="512px" height="512px" class=""><g transform="matrix(0.239993 0 0 0.239993 194.562 194.562)"><path style="fill:#B3B3B3" d="M437.024,74.976C388.663,26.625,324.383,0,256,0S123.337,26.625,74.976,74.976  C26.625,123.337,0,187.617,0,256s26.625,132.663,74.976,181.024C123.337,485.375,187.617,512,256,512s132.663-26.625,181.024-74.976  C485.375,388.663,512,324.383,512,256S485.375,123.337,437.024,74.976z M256,193.495c34.469,0,62.505,28.037,62.505,62.505  S290.469,318.505,256,318.505S193.495,290.469,193.495,256S221.531,193.495,256,193.495z" data-original="#FFE475" class="" data-old_color="#B5B5B5"/><path style="fill:#00295C" d="M256,0c-0.001,0-0.002,0-0.003,0v193.495c0.001,0,0.002,0,0.003,0  c34.469,0,62.505,28.037,62.505,62.505S290.469,318.505,256,318.505c-0.001,0-0.002,0-0.003,0V512c0.001,0,0.002,0,0.003,0  c68.383,0,132.663-26.625,181.024-74.976C485.375,388.663,512,324.383,512,256s-26.625-132.663-74.976-181.024  C388.663,26.625,324.383,0,256,0z" data-original="#FFB726" class="active-path" data-old_color="#1B00C5"/></g> </svg>
